<?xml version="1.0" encoding="utf-8"?>
<!-- Generator: Adobe Illustrator 13.0.0, SVG Export Plug-In  -->
<!DOCTYPE svg PUBLIC "-//W3C//DTD SVG 1.1//EN" "http://www.w3.org/Graphics/SVG/1.1/DTD/svg11.dtd" [
	<!ENTITY ns_flows "http://ns.adobe.com/Flows/1.0/">
]>
<svg version="1.1"
	 xmlns="http://www.w3.org/2000/svg" xmlns:xlink="http://www.w3.org/1999/xlink" xmlns:a="http://ns.adobe.com/AdobeSVGViewerExtensions/3.0/"
	 x="0px" y="0px" width="128px" height="128px" viewBox="-10.471 0 128 128" enable-background="new -10.471 0 128 128"
	 xml:space="preserve">
<defs>
</defs>
<path d="M107.059,93.415c-1.931,6.43-5.049,12.818-9.375,19.155c-6.611,10.106-13.224,15.159-19.84,15.159
	c-2.472,0-6.059-0.837-10.744-2.484c-4.411-1.647-8.218-2.476-11.433-2.476s-6.916,0.862-11.099,2.619
	C40.394,127.13,37.014,128,34.445,128c-7.808,0-15.505-6.676-23.076-20.043C3.79,94.598,0,81.712,0,69.301
	c0-11.66,2.894-21.213,8.678-28.653c5.788-7.44,13.093-11.162,21.91-11.162c3.668,0,8.176,0.781,13.507,2.34
	c5.319,1.559,8.855,2.341,10.609,2.341c2.294,0,6.012-0.875,11.157-2.615c5.143-1.741,9.549-2.615,13.232-2.615
	c6.059,0,11.526,1.652,16.394,4.956c2.652,1.834,5.323,4.407,7.984,7.719c-4.132,3.396-7.072,6.43-8.812,9.096
	c-3.312,4.774-4.965,10.055-4.965,15.843c0,6.431,1.745,12.172,5.243,17.215C98.419,88.826,102.462,92.037,107.059,93.415z
	 M78.258,3.168c0,3.123-0.752,6.617-2.269,10.474c-1.518,3.862-3.925,7.398-7.229,10.604c-2.763,2.759-5.518,4.639-8.272,5.649
	c-1.846,0.553-4.503,0.972-7.993,1.238c0.186-7.622,2.18-14.187,5.995-19.696C62.296,5.923,68.701,2.115,77.708,0
	c0.094,0.186,0.187,0.454,0.279,0.826c0.089,0.37,0.135,0.646,0.135,0.83v0.826C78.122,2.761,78.169,2.983,78.258,3.168z"/>
</svg>
