<?xml version="1.0" encoding="UTF-8" standalone="no"?>
<!-- Created with Inkscape (http://www.inkscape.org/) -->

<svg
   xmlns:dc="http://purl.org/dc/elements/1.1/"
   xmlns:cc="http://creativecommons.org/ns#"
   xmlns:rdf="http://www.w3.org/1999/02/22-rdf-syntax-ns#"
   xmlns:svg="http://www.w3.org/2000/svg"
   xmlns="http://www.w3.org/2000/svg"
   xmlns:sodipodi="http://sodipodi.sourceforge.net/DTD/sodipodi-0.dtd"
   xmlns:inkscape="http://www.inkscape.org/namespaces/inkscape"
   id="svg3141"
   version="1.1"
   inkscape:version="0.92.2 5c3e80d, 2017-08-06"
   width="328.2375"
   height="394.275"
   xml:space="preserve"
   sodipodi:docname="Mono_Project_Logo.blue.no-text.svg"><metadata
     id="metadata3147"><rdf:RDF><cc:Work
         rdf:about=""><dc:format>image/svg+xml</dc:format><dc:type
           rdf:resource="http://purl.org/dc/dcmitype/StillImage" /><dc:title /></cc:Work></rdf:RDF></metadata><defs
     id="defs3145" /><sodipodi:namedview
     pagecolor="#ffffff"
     bordercolor="#666666"
     borderopacity="1"
     objecttolerance="10"
     gridtolerance="10"
     guidetolerance="10"
     inkscape:pageopacity="0"
     inkscape:pageshadow="2"
     inkscape:window-width="1327"
     inkscape:window-height="928"
     id="namedview3143"
     showgrid="false"
     inkscape:zoom="1.349312"
     inkscape:cx="164.11874"
     inkscape:cy="197.1375"
     inkscape:window-x="0"
     inkscape:window-y="1"
     inkscape:window-maximized="0"
     inkscape:current-layer="g3149" /><g
     id="g3149"
     inkscape:groupmode="layer"
     inkscape:label="ink_ext_XXXXXX"
     transform="matrix(1.25,0,0,-1.25,0,394.275)"><path
       id="path3153"
       style="fill:#3498DB;fill-opacity:1;fill-rule:nonzero;stroke:none;stroke-width:0.1"
       d="M 240.46231,286.36315 H 24.918716 c -8.52302,0 -15.4324001,-6.909 -15.4324001,-15.433 v -81.401 l 48.5031001,13.55 32.284,-13.389 -26.4211,13.389 c 0,0 -18.5836,10.157 -21.8543,23.473 -3.2707,13.315 13.2988,28.509 13.2988,28.509 l 59.932494,-7.667 -32.601194,6.14 c 0,0 11.4344,7.615 37.153194,6.788 28.224,-0.907 67.991,-8.041 74.554,-14.604 6.564,-6.564 18.795,-50.893 11.763,-57.927 -3.302,-3.302 -45.482,7.048 -45.482,7.048 l 35.188,-11.155 c 0,0 19.515,-44.789 7.17,-83.309 0,0 -26.866,14.579 -48.135,43.366 17.625,-36.885 46.484,-48.712996 46.484,-48.712996 0,0 -10.849,-29.2038 -17.133,-35.4862 L 81.829316,103.55315 29.860516,39.957154 H 240.46231 c 8.523,0 15.431,6.9101 15.431,15.4324 V 270.93015 c 0,8.524 -6.908,15.433 -15.431,15.433"
       inkscape:connector-curvature="0" /></g></svg>