<?xml version="1.0" standalone="yes"?>
<svg version="1.1" xmlns="http://www.w3.org/2000/svg" xmlns:xlink="http://www.w3.org/1999/xlink" xmlns:ev="http://www.w3.org/2001/xml-events" width="550" height="550">
<path style="fill:#ffffff; stroke:none;" d="M0 0L0 550L550 550L550 0L0 0z"/>
<path style="fill:#000000; stroke:none;" d="M10 10L10 80L80 80L80 10L10 10M100 10L100 20L90 20L90 30L100 30L100 40L90 40L90 50L100 50L100 40L110 40L110 30L100 30L100 20L110 20L110 10L100 10M120 10L120 50L110 50L110 60L90 60L90 80L100 80L100 70L110 70L110 80L120 80L120 100L110 100L110 90L70 90L70 100L60 100L60 90L10 90L10 100L50 100L50 110L40 110L40 120L30 120L30 140L20 140L20 160L30 160L30 180L40 180L40 170L50 170L50 190L30 190L30 200L20 200L20 220L10 220L10 290L30 290L30 300L20 300L20 350L10 350L10 410L20 410L20 400L40 400L40 390L50 390L50 410L30 410L30 420L10 420L10 440L20 440L20 450L40 450L40 460L50 460L50 450L40 450L40 440L120 440L120 430L70 430L70 420L100 420L100 400L120 400L120 390L90 390L90 380L100 380L100 370L90 370L90 360L110 360L110 370L140 370L140 390L130 390L130 410L150 410L150 400L140 400L140 390L150 390L150 370L160 370L160 380L170 380L170 390L160 390L160 420L180 420L180 410L190 410L190 400L180 400L180 390L210 390L210 410L200 410L200 440L210 440L210 450L220 450L220 470L210 470L210 490L200 490L200 500L210 500L210 510L200 510L200 520L190 520L190 510L180 510L180 530L170 530L170 500L160 500L160 480L140 480L140 490L130 490L130 470L110 470L110 480L100 480L100 460L110 460L110 450L90 450L90 480L100 480L100 490L90 490L90 540L120 540L120 530L130 530L130 540L150 540L150 530L160 530L160 540L180 540L180 530L190 530L190 540L200 540L200 520L210 520L210 540L220 540L220 530L240 530L240 510L250 510L250 500L280 500L280 520L300 520L300 530L310 530L310 540L320 540L320 530L330 530L330 520L350 520L350 530L370 530L370 520L360 520L360 510L390 510L390 520L380 520L380 540L390 540L390 520L400 520L400 540L410 540L410 520L430 520L430 530L420 530L420 540L430 540L430 530L440 530L440 520L450 520L450 500L490 500L490 510L460 510L460 520L470 520L470 530L450 530L450 540L480 540L480 530L490 530L490 540L510 540L510 530L490 530L490 520L500 520L500 460L510 460L510 450L460 450L460 440L450 440L450 430L460 430L460 420L450 420L450 410L440 410L440 420L430 420L430 410L420 410L420 420L430 420L430 430L410 430L410 440L430 440L430 450L410 450L410 460L400 460L400 450L390 450L390 460L400 460L400 470L410 470L410 480L400 480L400 500L410 500L410 510L390 510L390 500L380 500L380 490L390 490L390 480L380 480L380 450L370 450L370 480L380 480L380 490L360 490L360 480L340 480L340 460L350 460L350 470L360 470L360 440L350 440L350 430L320 430L320 420L330 420L330 410L340 410L340 420L360 420L360 430L370 430L370 440L400 440L400 430L390 430L390 420L410 420L410 400L440 400L440 360L450 360L450 350L440 350L440 340L430 340L430 330L420 330L420 340L400 340L400 350L390 350L390 330L410 330L410 320L440 320L440 310L420 310L420 300L400 300L400 290L390 290L390 280L400 280L400 270L390 270L390 260L380 260L380 250L400 250L400 230L410 230L410 240L420 240L420 230L430 230L430 240L450 240L450 250L440 250L440 260L430 260L430 270L420 270L420 260L410 260L410 280L430 280L430 290L440 290L440 280L430 280L430 270L450 270L450 310L460 310L460 300L470 300L470 310L480 310L480 300L490 300L490 320L510 320L510 310L520 310L520 330L470 330L470 320L450 320L450 340L460 340L460 350L470 350L470 360L490 360L490 350L500 350L500 370L490 370L490 380L500 380L500 400L490 400L490 410L470 410L470 400L480 400L480 380L470 380L470 370L460 370L460 380L450 380L450 400L460 400L460 410L470 410L470 420L480 420L480 430L470 430L470 440L490 440L490 420L500 420L500 400L510 400L510 370L520 370L520 330L530 330L530 320L540 320L540 310L520 310L520 300L510 300L510 290L520 290L520 280L510 280L510 270L530 270L530 280L540 280L540 270L530 270L530 250L540 250L540 230L530 230L530 220L510 220L510 210L520 210L520 200L530 200L530 180L540 180L540 150L520 150L520 140L510 140L510 120L520 120L520 110L530 110L530 120L540 120L540 100L530 100L530 90L520 90L520 100L510 100L510 90L500 90L500 100L490 100L490 90L480 90L480 100L490 100L490 120L480 120L480 110L460 110L460 120L450 120L450 110L440 110L440 100L410 100L410 90L420 90L420 70L430 70L430 80L440 80L440 40L450 40L450 50L460 50L460 40L450 40L450 20L440 20L440 10L430 10L430 20L420 20L420 10L400 10L400 30L390 30L390 40L410 40L410 30L440 30L440 40L420 40L420 50L410 50L410 90L400 90L400 70L390 70L390 90L400 90L400 100L410 100L410 110L430 110L430 120L420 120L420 140L430 140L430 160L420 160L420 150L390 150L390 140L400 140L400 130L410 130L410 120L400 120L400 110L390 110L390 100L380 100L380 90L370 90L370 80L380 80L380 70L370 70L370 80L360 80L360 70L350 70L350 60L340 60L340 40L350 40L350 50L360 50L360 60L370 60L370 50L360 50L360 40L350 40L350 10L240 10L240 20L230 20L230 30L220 30L220 10L210 10L210 30L220 30L220 50L190 50L190 80L180 80L180 50L170 50L170 60L160 60L160 70L150 70L150 80L140 80L140 60L150 60L150 50L140 50L140 40L150 40L150 30L170 30L170 40L190 40L190 30L180 30L180 10L170 10L170 20L140 20L140 10L120 10M360 10L360 20L370 20L370 10L360 10M380 10L380 20L390 20L390 10L380 10M470 10L470 80L540 80L540 10L470 10z"/>
<path style="fill:#ffffff; stroke:none;" d="M20 20L20 70L70 70L70 20L20 20M130 20L130 40L140 40L140 20L130 20M240 20L240 40L230 40L230 50L220 50L220 60L250 60L250 50L260 50L260 20L240 20M270 20L270 30L280 30L280 40L270 40L270 50L280 50L280 40L290 40L290 50L300 50L300 60L320 60L320 90L310 90L310 100L320 100L320 90L330 90L330 110L300 110L300 100L280 100L280 110L270 110L270 100L260 100L260 120L270 120L270 130L260 130L260 140L250 140L250 150L260 150L260 140L270 140L270 130L290 130L290 110L300 110L300 140L280 140L280 150L270 150L270 160L300 160L300 170L290 170L290 190L280 190L280 200L270 200L270 210L290 210L290 190L300 190L300 170L310 170L310 150L320 150L320 130L310 130L310 120L330 120L330 130L340 130L340 120L330 120L330 110L340 110L340 100L350 100L350 130L360 130L360 140L370 140L370 120L360 120L360 100L370 100L370 90L350 90L350 70L340 70L340 60L320 60L320 50L310 50L310 40L290 40L290 30L300 30L300 20L270 20M320 20L320 30L330 30L330 40L340 40L340 20L320 20M480 20L480 70L530 70L530 20L480 20z"/>
<path style="fill:#000000; stroke:none;" d="M30 30L30 60L60 60L60 30L30 30M370 30L370 40L380 40L380 30L370 30M490 30L490 60L520 60L520 30L490 30M240 40L240 50L250 50L250 40L240 40z"/>
<path style="fill:#ffffff; stroke:none;" d="M420 50L420 60L430 60L430 50L420 50M110 60L110 70L120 70L120 80L130 80L130 110L120 110L120 140L90 140L90 130L110 130L110 100L100 100L100 110L90 110L90 130L80 130L80 120L70 120L70 110L80 110L80 100L70 100L70 110L50 110L50 120L40 120L40 150L30 150L30 160L40 160L40 150L60 150L60 140L70 140L70 150L80 150L80 160L70 160L70 170L60 170L60 190L50 190L50 210L80 210L80 200L70 200L70 190L90 190L90 210L100 210L100 220L90 220L90 240L100 240L100 230L110 230L110 240L130 240L130 250L140 250L140 260L120 260L120 250L100 250L100 260L110 260L110 270L130 270L130 280L150 280L150 300L140 300L140 290L120 290L120 280L100 280L100 300L110 300L110 310L100 310L100 340L70 340L70 330L80 330L80 320L90 320L90 310L80 310L80 300L60 300L60 310L80 310L80 320L70 320L70 330L40 330L40 340L30 340L30 350L20 350L20 360L30 360L30 350L40 350L40 340L50 340L50 360L70 360L70 370L80 370L80 380L70 380L70 390L60 390L60 370L40 370L40 380L30 380L30 370L20 370L20 390L40 390L40 380L50 380L50 390L60 390L60 410L90 410L90 400L70 400L70 390L80 390L80 380L90 380L90 370L80 370L80 360L90 360L90 350L100 350L100 340L110 340L110 360L140 360L140 350L170 350L170 360L180 360L180 370L170 370L170 380L190 380L190 370L200 370L200 380L210 380L210 390L240 390L240 400L220 400L220 410L210 410L210 440L220 440L220 420L230 420L230 440L240 440L240 450L230 450L230 460L250 460L250 430L260 430L260 450L270 450L270 430L260 430L260 420L240 420L240 400L270 400L270 420L280 420L280 430L300 430L300 440L290 440L290 450L300 450L300 440L310 440L310 450L320 450L320 440L310 440L310 420L290 420L290 410L300 410L300 390L310 390L310 380L300 380L300 360L310 360L310 370L320 370L320 390L340 390L340 380L350 380L350 400L360 400L360 380L380 380L380 410L400 410L400 400L410 400L410 390L430 390L430 380L420 380L420 360L400 360L400 370L390 370L390 380L380 380L380 370L370 370L370 360L350 360L350 350L360 350L360 340L350 340L350 350L340 350L340 330L350 330L350 320L360 320L360 330L390 330L390 320L410 320L410 310L390 310L390 290L380 290L380 280L390 280L390 270L380 270L380 280L370 280L370 270L360 270L360 260L340 260L340 250L360 250L360 230L380 230L380 240L370 240L370 250L380 250L380 240L390 240L390 230L400 230L400 220L390 220L390 210L370 210L370 220L360 220L360 200L370 200L370 190L380 190L380 200L390 200L390 190L400 190L400 180L420 180L420 190L410 190L410 200L400 200L400 210L410 210L410 230L420 230L420 210L430 210L430 220L440 220L440 230L450 230L450 220L460 220L460 240L500 240L500 230L510 230L510 240L530 240L530 230L510 230L510 220L460 220L460 210L450 210L450 200L480 200L480 190L470 190L470 180L460 180L460 170L500 170L500 150L510 150L510 140L500 140L500 130L490 130L490 140L480 140L480 130L470 130L470 120L460 120L460 130L450 130L450 140L440 140L440 150L450 150L450 140L470 140L470 150L460 150L460 170L450 170L450 160L430 160L430 170L420 170L420 160L410 160L410 170L400 170L400 180L390 180L390 190L380 190L380 180L340 180L340 170L330 170L330 160L360 160L360 170L380 170L380 160L390 160L390 150L370 150L370 160L360 160L360 150L340 150L340 140L330 140L330 160L320 160L320 170L330 170L330 180L320 180L320 190L310 190L310 210L300 210L300 220L290 220L290 230L270 230L270 240L280 240L280 250L300 250L300 260L320 260L320 250L310 250L310 240L300 240L300 230L320 230L320 190L330 190L330 220L340 220L340 250L330 250L330 260L340 260L340 270L300 270L300 300L290 300L290 320L300 320L300 310L310 310L310 300L320 300L320 290L330 290L330 310L320 310L320 320L330 320L330 310L340 310L340 330L330 330L330 350L320 350L320 360L310 360L310 340L300 340L300 350L290 350L290 340L280 340L280 330L270 330L270 340L220 340L220 330L210 330L210 310L220 310L220 320L230 320L230 330L240 330L240 320L250 320L250 310L270 310L270 320L280 320L280 300L240 300L240 280L250 280L250 250L260 250L260 240L250 240L250 230L260 230L260 220L250 220L250 210L260 210L260 200L250 200L250 210L240 210L240 190L260 190L260 180L230 180L230 170L240 170L240 160L230 160L230 150L220 150L220 170L210 170L210 160L190 160L190 150L210 150L210 120L240 120L240 130L250 130L250 120L240 120L240 110L250 110L250 90L240 90L240 80L250 80L250 70L240 70L240 80L230 80L230 70L220 70L220 80L210 80L210 70L200 70L200 80L190 80L190 90L210 90L210 100L200 100L200 120L190 120L190 110L180 110L180 90L170 90L170 70L160 70L160 80L150 80L150 90L140 90L140 80L130 80L130 60L110 60M260 60L260 90L290 90L290 60L260 60z"/>
<path style="fill:#000000; stroke:none;" d="M270 70L270 80L280 80L280 70L270 70z"/>
<path style="fill:#ffffff; stroke:none;" d="M300 70L300 80L310 80L310 70L300 70z"/>
<path style="fill:#000000; stroke:none;" d="M330 70L330 90L340 90L340 70L330 70M450 70L450 90L460 90L460 100L470 100L470 90L460 90L460 70L450 70M220 80L220 90L230 90L230 100L240 100L240 90L230 90L230 80L220 80M140 100L140 110L130 110L130 120L150 120L150 130L130 130L130 140L140 140L140 150L110 150L110 160L120 160L120 170L110 170L110 190L140 190L140 200L170 200L170 210L160 210L160 230L170 230L170 210L180 210L180 220L190 220L190 210L200 210L200 240L190 240L190 230L180 230L180 240L170 240L170 250L160 250L160 270L150 270L150 260L140 260L140 270L150 270L150 280L160 280L160 300L170 300L170 250L180 250L180 270L190 270L190 260L200 260L200 280L180 280L180 290L190 290L190 310L140 310L140 320L150 320L150 330L120 330L120 310L110 310L110 340L120 340L120 350L130 350L130 340L160 340L160 330L190 330L190 340L180 340L180 350L190 350L190 360L200 360L200 370L230 370L230 360L240 360L240 370L250 370L250 350L220 350L220 360L210 360L210 350L190 350L190 340L200 340L200 330L190 330L190 310L210 310L210 300L220 300L220 310L230 310L230 320L240 320L240 300L220 300L220 290L230 290L230 280L240 280L240 270L210 270L210 260L200 260L200 240L210 240L210 230L220 230L220 250L230 250L230 240L240 240L240 230L250 230L250 220L210 220L210 210L200 210L200 200L180 200L180 180L170 180L170 170L190 170L190 160L180 160L180 140L170 140L170 120L160 120L160 110L170 110L170 100L160 100L160 110L150 110L150 100L140 100z"/>
<path style="fill:#ffffff; stroke:none;" d="M500 100L500 120L510 120L510 100L500 100z"/>
<path style="fill:#000000; stroke:none;" d="M10 110L10 120L20 120L20 110L10 110z"/>
<path style="fill:#ffffff; stroke:none;" d="M380 110L380 130L390 130L390 110L380 110z"/>
<path style="fill:#000000; stroke:none;" d="M60 120L60 130L70 130L70 140L80 140L80 150L90 150L90 140L80 140L80 130L70 130L70 120L60 120M180 120L180 130L190 130L190 140L200 140L200 130L190 130L190 120L180 120z"/>
<path style="fill:#ffffff; stroke:none;" d="M430 120L430 130L440 130L440 120L430 120M150 130L150 150L170 150L170 140L160 140L160 130L150 130z"/>
<path style="fill:#000000; stroke:none;" d="M530 130L530 140L540 140L540 130L530 130M300 140L300 150L310 150L310 140L300 140M490 140L490 150L480 150L480 160L490 160L490 150L500 150L500 140L490 140M80 160L80 170L70 170L70 180L100 180L100 160L80 160z"/>
<path style="fill:#ffffff; stroke:none;" d="M130 160L130 170L150 170L150 160L130 160M250 160L250 170L260 170L260 160L250 160M270 170L270 180L280 180L280 170L270 170M520 170L520 180L530 180L530 170L520 170M140 180L140 190L170 190L170 180L140 180z"/>
<path style="fill:#000000; stroke:none;" d="M210 180L210 200L220 200L220 210L230 210L230 190L220 190L220 180L210 180M430 180L430 190L420 190L420 200L430 200L430 210L440 210L440 220L450 220L450 210L440 210L440 200L430 200L430 190L440 190L440 180L430 180z"/>
<path style="fill:#ffffff; stroke:none;" d="M490 180L490 190L510 190L510 180L490 180z"/>
<path style="fill:#000000; stroke:none;" d="M340 190L340 200L350 200L350 190L340 190M100 200L100 210L120 210L120 220L110 220L110 230L120 230L120 220L140 220L140 230L150 230L150 220L140 220L140 210L130 210L130 200L100 200z"/>
<path style="fill:#ffffff; stroke:none;" d="M500 200L500 210L510 210L510 200L500 200M30 210L30 230L20 230L20 240L30 240L30 230L40 230L40 250L20 250L20 260L40 260L40 270L50 270L50 260L40 260L40 250L80 250L80 240L70 240L70 230L80 230L80 220L60 220L60 240L50 240L50 220L40 220L40 210L30 210z"/>
<path style="fill:#000000; stroke:none;" d="M140 240L140 250L150 250L150 240L140 240z"/>
<path style="fill:#ffffff; stroke:none;" d="M510 250L510 260L500 260L500 270L510 270L510 260L520 260L520 250L510 250M60 260L60 290L90 290L90 260L60 260M260 260L260 290L290 290L290 260L260 260M460 260L460 290L490 290L490 260L460 260M20 270L20 280L30 280L30 290L40 290L40 300L30 300L30 320L50 320L50 310L40 310L40 300L50 300L50 280L30 280L30 270L20 270z"/>
<path style="fill:#000000; stroke:none;" d="M70 270L70 280L80 280L80 270L70 270M270 270L270 280L280 280L280 270L270 270M340 270L340 280L350 280L350 270L340 270M470 270L470 280L480 280L480 270L470 270z"/>
<path style="fill:#ffffff; stroke:none;" d="M200 280L200 300L210 300L210 290L220 290L220 280L200 280M500 280L500 290L510 290L510 280L500 280z"/>
<path style="fill:#000000; stroke:none;" d="M110 290L110 300L120 300L120 290L110 290M340 290L340 310L360 310L360 320L370 320L370 310L380 310L380 320L390 320L390 310L380 310L380 300L370 300L370 290L360 290L360 300L350 300L350 290L340 290M60 340L60 350L70 350L70 360L80 360L80 350L70 350L70 340L60 340z"/>
<path style="fill:#ffffff; stroke:none;" d="M370 340L370 350L380 350L380 340L370 340M420 340L420 350L430 350L430 360L440 360L440 350L430 350L430 340L420 340M470 340L470 350L490 350L490 340L470 340M500 340L500 350L510 350L510 340L500 340z"/>
<path style="fill:#000000; stroke:none;" d="M270 350L270 360L260 360L260 370L270 370L270 380L250 380L250 390L270 390L270 380L280 380L280 360L290 360L290 350L270 350M330 350L330 360L320 360L320 370L330 370L330 360L340 360L340 370L350 370L350 380L360 380L360 370L350 370L350 360L340 360L340 350L330 350M530 350L530 380L540 380L540 350L530 350M400 370L400 380L390 380L390 390L400 390L400 380L410 380L410 370L400 370M290 380L290 390L280 390L280 410L290 410L290 390L300 390L300 380L290 380M530 390L530 410L520 410L520 420L530 420L530 410L540 410L540 390L530 390z"/>
<path style="fill:#ffffff; stroke:none;" d="M310 400L310 410L330 410L330 400L310 400M30 420L30 440L40 440L40 430L60 430L60 420L30 420z"/>
<path style="fill:#000000; stroke:none;" d="M140 420L140 430L130 430L130 450L120 450L120 460L150 460L150 470L170 470L170 480L200 480L200 450L190 450L190 470L180 470L180 460L160 460L160 450L170 450L170 430L150 430L150 420L140 420z"/>
<path style="fill:#ffffff; stroke:none;" d="M370 420L370 430L380 430L380 420L370 420M440 420L440 430L430 430L430 440L440 440L440 450L450 450L450 440L440 440L440 430L450 430L450 420L440 420z"/>
<path style="fill:#000000; stroke:none;" d="M520 430L520 440L540 440L540 430L520 430z"/>
<path style="fill:#ffffff; stroke:none;" d="M140 440L140 450L150 450L150 440L140 440M330 440L330 460L320 460L320 470L330 470L330 460L340 460L340 450L350 450L350 440L330 440z"/>
<path style="fill:#000000; stroke:none;" d="M70 450L70 460L80 460L80 450L70 450z"/>
<path style="fill:#ffffff; stroke:none;" d="M260 460L260 490L290 490L290 460L260 460M300 460L300 470L310 470L310 460L300 460M440 460L440 470L450 470L450 460L440 460M460 460L460 490L490 490L490 460L460 460z"/>
<path style="fill:#000000; stroke:none;" d="M10 470L10 540L80 540L80 470L10 470z"/>
<path style="fill:#ffffff; stroke:none;" d="M240 470L240 480L250 480L250 470L240 470z"/>
<path style="fill:#000000; stroke:none;" d="M270 470L270 480L280 480L280 470L270 470M470 470L470 480L480 480L480 470L470 470M530 470L530 480L540 480L540 470L530 470z"/>
<path style="fill:#ffffff; stroke:none;" d="M20 480L20 530L70 530L70 480L20 480M110 480L110 490L100 490L100 520L110 520L110 500L120 500L120 520L130 520L130 530L150 530L150 520L160 520L160 500L150 500L150 490L140 490L140 500L150 500L150 510L130 510L130 500L120 500L120 480L110 480M220 480L220 490L210 490L210 500L220 500L220 510L240 510L240 500L220 500L220 490L230 490L230 480L220 480M300 480L300 500L290 500L290 510L300 510L300 500L320 500L320 490L330 490L330 500L340 500L340 510L360 510L360 490L350 490L350 500L340 500L340 490L330 490L330 480L300 480M410 480L410 500L420 500L420 510L430 510L430 520L440 520L440 510L430 510L430 500L450 500L450 480L410 480z"/>
<path style="fill:#000000; stroke:none;" d="M510 480L510 490L520 490L520 480L510 480M30 490L30 520L60 520L60 490L30 490M420 490L420 500L430 500L430 490L420 490M510 500L510 520L520 520L520 540L530 540L530 530L540 530L540 520L530 520L530 500L510 500M260 510L260 520L270 520L270 510L260 510z"/>
<path style="fill:#ffffff; stroke:none;" d="M310 520L310 530L320 530L320 520L310 520z"/>
<path style="fill:#000000; stroke:none;" d="M250 530L250 540L290 540L290 530L250 530z"/>
</svg>
