<?xml version="1.0" encoding="UTF-8"?>
<svg xmlns="http://www.w3.org/2000/svg" width="1024" height="768">
<path d="M0,0H1024V768H0" fill="#22b04e"/>
<g fill="#a8cf3e" stroke="#fff">
<path d="m605,122c50,26 89,66 92,144H337c4,-69 38,-114 92,-144L403,74c-5,-9 5,-15 10,-5l27,48c47,-19 98,-24 156,0l27,-50c4,-8 15,-3 10,6l-28,49 z"/>
<path d="m338,279h359v259c0,25 -25,45 -37,45h-35v93c0,42 -81,42 -81,0v-94h-53v94c-1,42 -81,42 -80,0v-93h-31c-22,0 -42,-25 -42,-44V280 z"/>
<path d="m325,308v175c0,46 -80,47 -80,0v-175c0,-47 80,-47 80,0z"/>
<path d="m790,308v175c0,46 -80,47 -80,0v-175c0,-47 80,-47 80,0z"/>
<circle cx="436" cy="186" r="15" fill="#000"/>
<circle cx="600" cy="186" r="15" fill="#000"/>
</g>
</svg>